<?xml version="1.0" encoding="UTF-8"?> <svg xmlns="http://www.w3.org/2000/svg" version="1.2" viewBox="0 0 500 493" width="121" height="119"><defs><linearGradient id="P" gradientUnits="userSpaceOnUse"></linearGradient><radialGradient id="g1" cx="0" cy="0" r="1" href="#P" gradientTransform="matrix(55.852,0,0,55.852,185.494,82.856)"><stop stop-color="#fff"></stop><stop offset=".17" stop-color="#fefdfa"></stop><stop offset=".36" stop-color="#fcf6ec"></stop><stop offset=".56" stop-color="#f8ebd6"></stop><stop offset=".77" stop-color="#f2dbb5"></stop><stop offset=".99" stop-color="#ebc78d"></stop><stop offset="1" stop-color="#ebc68b"></stop></radialGradient><radialGradient id="g2" cx="0" cy="0" r="1" href="#P" gradientTransform="matrix(55.853,0,0,55.853,92.305,163.908)"><stop stop-color="#fff"></stop><stop offset=".17" stop-color="#fefdfa"></stop><stop offset=".36" stop-color="#fcf6ec"></stop><stop offset=".56" stop-color="#f8ebd6"></stop><stop offset=".77" stop-color="#f2dbb5"></stop><stop offset=".99" stop-color="#ebc78d"></stop><stop offset="1" stop-color="#ebc68b"></stop></radialGradient><radialGradient id="g3" cx="0" cy="0" r="1" href="#P" gradientTransform="matrix(55.861,0,0,55.861,72.689,286.277)"><stop stop-color="#fff"></stop><stop offset=".17" stop-color="#fefdfa"></stop><stop offset=".36" stop-color="#fcf6ec"></stop><stop offset=".56" stop-color="#f8ebd6"></stop><stop offset=".77" stop-color="#f2dbb5"></stop><stop offset=".99" stop-color="#ebc78d"></stop><stop offset="1" stop-color="#ebc68b"></stop></radialGradient><radialGradient id="g4" cx="0" cy="0" r="1" href="#P" gradientTransform="matrix(55.861,0,0,55.861,135.826,392.706)"><stop stop-color="#fff"></stop><stop offset=".17" stop-color="#fefdfa"></stop><stop offset=".36" stop-color="#fcf6ec"></stop><stop offset=".56" stop-color="#f8ebd6"></stop><stop offset=".77" stop-color="#f2dbb5"></stop><stop offset=".99" stop-color="#ebc78d"></stop><stop offset="1" stop-color="#ebc68b"></stop></radialGradient><radialGradient id="g5" cx="0" cy="0" r="1" href="#P" gradientTransform="matrix(55.867,0,0,55.867,252.172,433.395)"><stop stop-color="#fff"></stop><stop offset=".17" stop-color="#fefdfa"></stop><stop offset=".36" stop-color="#fcf6ec"></stop><stop offset=".56" stop-color="#f8ebd6"></stop><stop offset=".77" stop-color="#f2dbb5"></stop><stop offset=".99" stop-color="#ebc78d"></stop><stop offset="1" stop-color="#ebc68b"></stop></radialGradient><radialGradient id="g6" cx="0" cy="0" r="1" href="#P" gradientTransform="matrix(55.867,0,0,55.867,367.288,389.306)"><stop stop-color="#fff"></stop><stop offset=".17" stop-color="#fefdfa"></stop><stop offset=".36" stop-color="#fcf6ec"></stop><stop offset=".56" stop-color="#f8ebd6"></stop><stop offset=".77" stop-color="#f2dbb5"></stop><stop offset=".99" stop-color="#ebc78d"></stop><stop offset="1" stop-color="#ebc68b"></stop></radialGradient><radialGradient id="g7" cx="0" cy="0" r="1" href="#P" gradientTransform="matrix(55.861,0,0,55.861,427.311,281.067)"><stop stop-color="#fff"></stop><stop offset=".17" stop-color="#fefdfa"></stop><stop offset=".36" stop-color="#fcf6ec"></stop><stop offset=".56" stop-color="#f8ebd6"></stop><stop offset=".77" stop-color="#f2dbb5"></stop><stop offset=".99" stop-color="#ebc78d"></stop><stop offset="1" stop-color="#ebc68b"></stop></radialGradient><radialGradient id="g8" cx="0" cy="0" r="1" href="#P" gradientTransform="matrix(55.861,0,0,55.861,404.154,159.326)"><stop stop-color="#fff"></stop><stop offset=".17" stop-color="#fefdfa"></stop><stop offset=".36" stop-color="#fcf6ec"></stop><stop offset=".56" stop-color="#f8ebd6"></stop><stop offset=".77" stop-color="#f2dbb5"></stop><stop offset=".99" stop-color="#ebc78d"></stop><stop offset="1" stop-color="#ebc68b"></stop></radialGradient><radialGradient id="g9" cx="0" cy="0" r="1" href="#P" gradientTransform="matrix(55.853,0,0,55.853,308.653,81.047)"><stop stop-color="#fff"></stop><stop offset=".17" stop-color="#fefdfa"></stop><stop offset=".36" stop-color="#fcf6ec"></stop><stop offset=".56" stop-color="#f8ebd6"></stop><stop offset=".77" stop-color="#f2dbb5"></stop><stop offset=".99" stop-color="#ebc78d"></stop><stop offset="1" stop-color="#ebc68b"></stop></radialGradient><linearGradient id="g10" x2="1" href="#P" gradientTransform="matrix(168.077,-198.173,191.245,162.2,181.256,175.013)"><stop offset=".05" stop-color="#fff"></stop><stop offset=".22" stop-color="#fffdfa"></stop><stop offset=".41" stop-color="#fdf7ec"></stop><stop offset=".62" stop-color="#fbeed6"></stop><stop offset=".83" stop-color="#f8e1b6"></stop><stop offset="1" stop-color="#f5d496"></stop></linearGradient><linearGradient id="g11" x2="1" href="#P" gradientTransform="matrix(124.449,0,0,129.37,87.844,125.913)"><stop offset=".05" stop-color="#fff"></stop><stop offset=".22" stop-color="#fffdfa"></stop><stop offset=".41" stop-color="#fdf7ec"></stop><stop offset=".62" stop-color="#fbeed6"></stop><stop offset=".83" stop-color="#f8e1b6"></stop><stop offset="1" stop-color="#f5d496"></stop></linearGradient><linearGradient id="g12" x2="1" href="#P" gradientTransform="matrix(165.758,0,0,145.739,8.142,223.236)"><stop offset=".05" stop-color="#fff"></stop><stop offset=".22" stop-color="#fffdfa"></stop><stop offset=".41" stop-color="#fdf7ec"></stop><stop offset=".62" stop-color="#fbeed6"></stop><stop offset=".83" stop-color="#f8e1b6"></stop><stop offset="1" stop-color="#f5d496"></stop></linearGradient><linearGradient id="g13" x2="1" href="#P" gradientTransform="matrix(145.496,0,0,134.378,37.303,328.359)"><stop offset=".05" stop-color="#fff"></stop><stop offset=".22" stop-color="#fffdfa"></stop><stop offset=".41" stop-color="#fdf7ec"></stop><stop offset=".62" stop-color="#fbeed6"></stop><stop offset=".83" stop-color="#f8e1b6"></stop><stop offset="1" stop-color="#f5d496"></stop></linearGradient><linearGradient id="g14" x2="1" href="#P" gradientTransform="matrix(140.509,0,0,159.18,126.537,403.144)"><stop offset=".05" stop-color="#fff"></stop><stop offset=".22" stop-color="#fffdfa"></stop><stop offset=".41" stop-color="#fdf7ec"></stop><stop offset=".62" stop-color="#fbeed6"></stop><stop offset=".83" stop-color="#f8e1b6"></stop><stop offset="1" stop-color="#f5d496"></stop></linearGradient><linearGradient id="g15" x2="1" href="#P" gradientTransform="matrix(140.481,0,0,158.985,232.447,403.297)"><stop offset=".05" stop-color="#fff"></stop><stop offset=".22" stop-color="#fffdfa"></stop><stop offset=".41" stop-color="#fdf7ec"></stop><stop offset=".62" stop-color="#fbeed6"></stop><stop offset=".83" stop-color="#f8e1b6"></stop><stop offset="1" stop-color="#f5d496"></stop></linearGradient><linearGradient id="g16" x2="1" href="#P" gradientTransform="matrix(145.908,0,0,134.394,316.768,328.832)"><stop offset=".05" stop-color="#fff"></stop><stop offset=".22" stop-color="#fffdfa"></stop><stop offset=".41" stop-color="#fdf7ec"></stop><stop offset=".62" stop-color="#fbeed6"></stop><stop offset=".83" stop-color="#f8e1b6"></stop><stop offset="1" stop-color="#f5d496"></stop></linearGradient><linearGradient id="g17" x2="1" href="#P" gradientTransform="matrix(165.615,0,0,145.777,326.243,223.782)"><stop offset=".05" stop-color="#fff"></stop><stop offset=".22" stop-color="#fffdfa"></stop><stop offset=".41" stop-color="#fdf7ec"></stop><stop offset=".62" stop-color="#fbeed6"></stop><stop offset=".83" stop-color="#f8e1b6"></stop><stop offset="1" stop-color="#f5d496"></stop></linearGradient><linearGradient id="g18" x2="1" href="#P" gradientTransform="matrix(117.539,0,0,129.946,295.019,126.194)"><stop offset=".05" stop-color="#fff"></stop><stop offset=".22" stop-color="#fffdfa"></stop><stop offset=".41" stop-color="#fdf7ec"></stop><stop offset=".62" stop-color="#fbeed6"></stop><stop offset=".83" stop-color="#f8e1b6"></stop><stop offset="1" stop-color="#f5d496"></stop></linearGradient><radialGradient id="g19" cx="0" cy="0" r="1" href="#P" gradientTransform="matrix(72.051,0,0,72.051,250,243.079)"><stop stop-color="#fff"></stop><stop offset=".28" stop-color="#fefdfa"></stop><stop offset=".61" stop-color="#faf6ec"></stop><stop offset=".95" stop-color="#f3ead6"></stop><stop offset="1" stop-color="#f2e8d2"></stop></radialGradient></defs><style>.a{fill:url(#g1)}.b{fill:url(#g2)}.c{fill:url(#g3)}.d{fill:url(#g4)}.e{fill:url(#g5)}.f{fill:url(#g6)}.g{fill:url(#g7)}.h{fill:url(#g8)}.i{fill:url(#g9)}.j{fill:url(#g10);stroke:#363636;stroke-miterlimit:10;stroke-width:5.1}.k{fill:url(#g11);stroke:#363636;stroke-miterlimit:10;stroke-width:5.1}.l{fill:url(#g12);stroke:#363636;stroke-miterlimit:10;stroke-width:5.1}.m{fill:url(#g13);stroke:#363636;stroke-miterlimit:10;stroke-width:5.1}.n{fill:url(#g14);stroke:#363636;stroke-miterlimit:10;stroke-width:5.1}.o{fill:url(#g15);stroke:#363636;stroke-miterlimit:10;stroke-width:5.1}.p{fill:url(#g16);stroke:#363636;stroke-miterlimit:10;stroke-width:5.1}.q{fill:url(#g17);stroke:#363636;stroke-miterlimit:10;stroke-width:5.1}.r{fill:url(#g18);stroke:#363636;stroke-miterlimit:10;stroke-width:5.1}.s{fill:url(#g19);stroke:#363636;stroke-miterlimit:10;stroke-width:5.1}</style><path class="a" d="m185.5 139.1c-30.9 0-55.9-25.2-55.9-56.3 0-31 25-56.2 55.9-56.2 30.9 0 55.9 25.2 55.9 56.2 0 31.1-25 56.3-55.9 56.3z"></path><path class="b" d="m92.3 220.1c-30.9 0-55.8-25.1-55.8-56.2 0-31.1 24.9-56.2 55.8-56.2 30.9 0 55.9 25.1 55.9 56.2 0 31.1-25 56.2-55.9 56.2z"></path><path class="c" d="m72.7 342.5c-30.9 0-55.9-25.1-55.9-56.2 0-31.1 25-56.2 55.9-56.2 30.9 0 55.8 25.1 55.8 56.2 0 31.1-24.9 56.2-55.8 56.2z"></path><path class="d" d="m135.8 448.9c-30.9 0-55.9-25.1-55.9-56.2 0-31.1 25-56.2 55.9-56.2 30.9 0 55.9 25.1 55.9 56.2 0 31.1-25 56.2-55.9 56.2z"></path><path class="e" d="m252.2 489.6c-30.9 0-55.9-25.1-55.9-56.2 0-31.1 25-56.2 55.9-56.2 30.9 0 55.8 25.1 55.8 56.2 0 31.1-24.9 56.2-55.8 56.2z"></path><path class="f" d="m367.3 445.5c-30.9 0-55.9-25.1-55.9-56.2 0-31.1 25-56.2 55.9-56.2 30.9 0 55.8 25.1 55.8 56.2 0 31.1-24.9 56.2-55.8 56.2z"></path><path class="g" d="m427.3 337.3c-30.9 0-55.8-25.2-55.8-56.2 0-31.1 24.9-56.3 55.8-56.3 30.9 0 55.9 25.2 55.9 56.3 0 31-25 56.2-55.9 56.2z"></path><path class="h" d="m404.1 215.5c-30.8 0-55.8-25.1-55.8-56.2 0-31 25-56.2 55.8-56.2 30.9 0 55.9 25.2 55.9 56.2 0 31.1-25 56.2-55.9 56.2z"></path><path class="i" d="m308.6 137.3c-30.9 0-55.8-25.1-55.8-56.2 0-31.1 24.9-56.2 55.8-56.2 30.9 0 55.9 25.1 55.9 56.2 0 31.1-25 56.2-55.9 56.2z"></path><path class="j" d="m320.2 107c-3.7 6.4-13.8 12.6-25.2 19.7-17.5 11-38.3 24.2-44 43.8q-0.3 1-0.6 2.2c-0.1-0.8-0.3-1.6-0.6-2.4-9.5-32.3-60-47-69.4-63.3-10.5-17.9 7.1-35.3 7.1-35.3l62.5-68.3 0.2 0.2 62.7 68.1c0 0 0.6 0.6 1.6 1.7 4.1 4.8 14.1 18.9 5.7 33.6z"></path><path class="k" d="m212.1 95.1c3.2 18.5-25.8 62.6-12.5 93.4 0.3 0.7 0.7 1.4 1 2.1-0.7-0.5-1.3-1-2-1.4-27.9-18.5-76 2.8-93.5-3.6-19.5-7-17.2-31.7-17.2-31.7l4.2-92.7h0.2l91.6 11.6c0 0 24.6 1.8 28.2 22.3z"></path><path class="l" d="m121.7 156.1c14.2 12.1 20.2 64.6 50.1 79.5 0.7 0.3 1.4 0.7 2.1 1-0.8 0-1.6 0.1-2.4 0.1-33.3 4-56.5 51.3-74 57.8-19.4 7.3-33.3-13.1-33.3-13.1l-56.1-73.8 0.2-0.1 77.6-50.4c0 0 20-14.5 35.8-1z"></path><path class="m" d="m91.4 261.1c18.6 0.1 56.7 36.4 89.2 28.6q1.1-0.3 2.2-0.7-0.9 0.9-1.7 1.7c-23 24.5-10.5 75.8-19.7 92.2-10.2 18.1-34 11.4-34 11.4l-90.1-20.2 0.1-0.2 27.2-88.8c0 0 6.1-24 26.8-24z"></path><path class="n" d="m135.3 361.3c14.2-12 66.7-8.8 86.5-35.9 0.5-0.6 0.9-1.2 1.3-1.8q-0.1 1.2-0.2 2.4c-2 33.6 40.4 64.8 43.7 83.3 3.8 20.5-18.7 30.7-18.7 30.7l-81.9 42.7-0.1-0.2-35.9-85.6c0.1 0.1-10.7-22.3 5.3-35.6z"></path><path class="o" d="m232.9 409.6c3.3-18.5 45.4-49.9 43.4-83.5-0.1-0.7-0.1-1.5-0.2-2.2 0.4 0.7 0.9 1.3 1.3 2 20 27 72.4 23.5 86.7 35.5 16 13.3 5.4 35.7 5.4 35.7l-35.5 85.7-0.2-0.1-82.1-42.4c0 0-22.5-10.2-18.8-30.7z"></path><path class="p" d="m338.5 383.5c-9.3-16.3 3-67.7-20.1-92-0.5-0.5-1.1-1.1-1.6-1.6 0.7 0.2 1.5 0.5 2.3 0.6 32.6 7.8 70.5-28.8 89.1-28.9 20.7-0.1 26.9 23.9 26.9 23.9l27.6 88.6-0.2 0.1-90 20.6c0 0-23.8 6.8-34-11.3z"></path><path class="q" d="m402.7 295.1c-17.5-6.4-40.9-53.7-74.2-57.4q-1-0.2-2.2-0.2c0.7-0.4 1.5-0.7 2.2-1 29.9-15.1 35.6-67.7 49.8-79.8 15.7-13.5 35.8 0.9 35.8 0.9l77.8 50-0.1 0.2-55.8 74c0 0-13.9 20.6-33.3 13.3z"></path><path class="r" d="m395.5 185.9c-17.6 6.4-65.7-14.7-93.6 3.9-0.6 0.4-1.2 0.9-1.8 1.4 0.4-0.8 0.7-1.5 1-2.2 8.1-18.8 0.4-42.5-6.1-62.3 11.4-7.1 21.5-13.4 25.2-19.7 8.4-14.7-1.6-28.8-5.7-33.6 1.2-0.2 1.8-0.3 1.8-0.3l91.5-11.9v0.2l4.6 92.8c0.1 0 2.5 24.7-16.9 31.7z"></path><path class="s" d="m250 297.2l-25.2 17.8-8-29.9-30.6-2.7 13-28.1-21.8-21.9 27.9-13-2.7-30.9 29.8 8 17.6-25.4 17.6 25.4 29.8-8-2.7 30.9 27.9 13-21.8 21.9 13 28.1-30.6 2.7-8 29.9z"></path></svg> 